ply
format ascii 1.0
comment Created by Open3D
element vertex 84
property double x
property double y
property double z
property double nx
property double ny
property double nz
property uchar red
property uchar green
property uchar blue
element face 160
property list uchar uint vertex_indices
end_header
0 0 1 0 6.83383e-18 1 0 255 0
0 0 -1 0 -6.83383e-18 -1 0 255 0
0.587785 0 0.809017 0.658541 -0.0790092 0.748386 0 255 0
0.475528 0.345492 0.809017 0.579211 0.323161 0.748386 0 0 255
0.181636 0.559017 0.809017 0.278643 0.601895 0.748386 255 0 0
-0.181636 0.559017 0.809017 -0.128358 0.650725 0.748386 255 0 0
-0.475528 0.345492 0.809017 -0.486331 0.451001 0.748386 0 255 0
-0.587785 7.19829e-17 0.809017 -0.658541 0.0790092 0.748386 0 255 0
-0.475528 -0.345492 0.809017 -0.579211 -0.323161 0.748386 0 255 0
-0.181636 -0.559017 0.809017 -0.278643 -0.601895 0.748386 0 0 255
0.181636 -0.559017 0.809017 0.128358 -0.650725 0.748386 255 0 0
0.475528 -0.345492 0.809017 0.486331 -0.451001 0.748386 0 255 0
0.951057 0 0.309017 0.957207 -0.0303843 0.287804 0 0 255
0.769421 0.559017 0.309017 0.792256 0.538051 0.287804 0 0 255
0.293893 0.904508 0.309017 0.32469 0.900969 0.287804 255 0 0
-0.293893 0.904508 0.309017 -0.266896 0.919747 0.287804 255 0 0
-0.769421 0.559017 0.309017 -0.756537 0.587214 0.287804 0 255 0
-0.951057 1.16471e-16 0.309017 -0.957207 0.0303843 0.287804 0 0 255
-0.769421 -0.559017 0.309017 -0.792256 -0.538051 0.287804 0 0 255
-0.293893 -0.904508 0.309017 -0.32469 -0.900969 0.287804 255 0 0
0.293893 -0.904508 0.309017 0.266896 -0.919747 0.287804 255 0 0
0.769421 -0.559017 0.309017 0.756537 -0.587214 0.287804 255 0 0
0.951057 0 -0.309017 0.957207 0.0303843 -0.287804 0 255 0
0.769421 0.559017 -0.309017 0.756537 0.587214 -0.287804 0 0 255
0.293893 0.904508 -0.309017 0.266896 0.919747 -0.287804 0 0 255
-0.293893 0.904508 -0.309017 -0.32469 0.900969 -0.287804 0 255 0
-0.769421 0.559017 -0.309017 -0.792256 0.538051 -0.287804 0 255 0
-0.951057 1.16471e-16 -0.309017 -0.957207 -0.0303843 -0.287804 0 255 0
-0.769421 -0.559017 -0.309017 -0.756537 -0.587214 -0.287804 0 0 255
-0.293893 -0.904508 -0.309017 -0.266896 -0.919747 -0.287804 0 0 255
0.293893 -0.904508 -0.309017 0.32469 -0.900969 -0.287804 255 0 0
0.769421 -0.559017 -0.309017 0.792256 -0.538051 -0.287804 255 0 0
0.587785 0 -0.809017 0.658541 0.0790092 -0.748386 0 255 0
0.475528 0.345492 -0.809017 0.486331 0.451001 -0.748386 0 255 0
0.181636 0.559017 -0.809017 0.128358 0.650725 -0.748386 0 0 255
-0.181636 0.559017 -0.809017 -0.278643 0.601895 -0.748386 0 0 255
-0.475528 0.345492 -0.809017 -0.579211 0.323161 -0.748386 255 0 0
-0.587785 7.19829e-17 -0.809017 -0.658541 -0.0790092 -0.748386 255 0 0
-0.475528 -0.345492 -0.809017 -0.486331 -0.451001 -0.748386 255 0 0
-0.181636 -0.559017 -0.809017 -0.128358 -0.650725 -0.748386 255 0 0
0.181636 -0.559017 -0.809017 0.278643 -0.601895 -0.748386 0 0 255
0.475528 -0.345492 -0.809017 0.579211 -0.323161 -0.748386 0 255 0
2.5 0 1 0 -1.70846e-17 1 0 0 255
2.5 0 -1 0 6.83383e-18 -1 0 255 0
3.08779 0 0.809017 0.658541 -0.0790092 0.748386 255 0 0
2.97553 0.345492 0.809017 0.579211 0.323161 0.748386 255 0 0
2.68164 0.559017 0.809017 0.278643 0.601895 0.748386 255 0 0
2.31836 0.559017 0.809017 -0.128358 0.650725 0.748386 255 0 0
2.02447 0.345492 0.809017 -0.486331 0.451001 0.748386 255 0 0
1.91221 7.19829e-17 0.809017 -0.658541 0.0790092 0.748386 255 0 0
2.02447 -0.345492 0.809017 -0.579211 -0.323161 0.748386 255 0 0
2.31836 -0.559017 0.809017 -0.278643 -0.601895 0.748386 0 0 255
2.68164 -0.559017 0.809017 0.128358 -0.650725 0.748386 0 0 255
2.97553 -0.345492 0.809017 0.486331 -0.451001 0.748386 0 0 255
3.45106 0 0.309017 0.957207 -0.0303843 0.287804 255 0 0
3.26942 0.559017 0.309017 0.792256 0.538051 0.287804 0 0 255
2.79389 0.904508 0.309017 0.32469 0.900969 0.287804 0 255 0
2.20611 0.904508 0.309017 -0.266896 0.919747 0.287804 0 255 0
1.73058 0.559017 0.309017 -0.756537 0.587214 0.287804 0 255 0
1.54894 1.16471e-16 0.309017 -0.957207 0.0303843 0.287804 0 0 255
1.73058 -0.559017 0.309017 -0.792256 -0.538051 0.287804 0 0 255
2.20611 -0.904508 0.309017 -0.32469 -0.900969 0.287804 0 0 255
2.79389 -0.904508 0.309017 0.266896 -0.919747 0.287804 0 0 255
3.26942 -0.559017 0.309017 0.756537 -0.587214 0.287804 0 0 255
3.45106 0 -0.309017 0.957207 0.0303843 -0.287804 255 0 0
3.26942 0.559017 -0.309017 0.756537 0.587214 -0.287804 255 0 0
2.79389 0.904508 -0.309017 0.266896 0.919747 -0.287804 255 0 0
2.20611 0.904508 -0.309017 -0.32469 0.900969 -0.287804 0 0 255
1.73058 0.559017 -0.309017 -0.792256 0.538051 -0.287804 0 255 0
1.54894 1.16471e-16 -0.309017 -0.957207 -0.0303843 -0.287804 0 255 0
1.73058 -0.559017 -0.309017 -0.756537 -0.587214 -0.287804 255 0 0
2.20611 -0.904508 -0.309017 -0.266896 -0.919747 -0.287804 255 0 0
2.79389 -0.904508 -0.309017 0.32469 -0.900969 -0.287804 255 0 0
3.26942 -0.559017 -0.309017 0.792256 -0.538051 -0.287804 255 0 0
3.08779 0 -0.809017 0.658541 0.0790092 -0.748386 255 0 0
2.97553 0.345492 -0.809017 0.486331 0.451001 -0.748386 0 255 0
2.68164 0.559017 -0.809017 0.128358 0.650725 -0.748386 0 255 0
2.31836 0.559017 -0.809017 -0.278643 0.601895 -0.748386 0 255 0
2.02447 0.345492 -0.809017 -0.579211 0.323161 -0.748386 0 255 0
1.91221 7.19829e-17 -0.809017 -0.658541 -0.0790092 -0.748386 0 255 0
2.02447 -0.345492 -0.809017 -0.486331 -0.451001 -0.748386 0 255 0
2.31836 -0.559017 -0.809017 -0.128358 -0.650725 -0.748386 0 255 0
2.68164 -0.559017 -0.809017 0.278643 -0.601895 -0.748386 0 255 0
2.97553 -0.345492 -0.809017 0.579211 -0.323161 -0.748386 0 255 0
3 0 2 3
3 1 33 32
3 0 3 4
3 1 34 33
3 0 4 5
3 1 35 34
3 0 5 6
3 1 36 35
3 0 6 7
3 1 37 36
3 0 7 8
3 1 38 37
3 0 8 9
3 1 39 38
3 0 9 10
3 1 40 39
3 0 10 11
3 1 41 40
3 0 11 2
3 1 32 41
3 12 3 2
3 12 13 3
3 13 4 3
3 13 14 4
3 14 5 4
3 14 15 5
3 15 6 5
3 15 16 6
3 16 7 6
3 16 17 7
3 17 8 7
3 17 18 8
3 18 9 8
3 18 19 9
3 19 10 9
3 19 20 10
3 20 11 10
3 20 21 11
3 21 2 11
3 21 12 2
3 22 13 12
3 22 23 13
3 23 14 13
3 23 24 14
3 24 15 14
3 24 25 15
3 25 16 15
3 25 26 16
3 26 17 16
3 26 27 17
3 27 18 17
3 27 28 18
3 28 19 18
3 28 29 19
3 29 20 19
3 29 30 20
3 30 21 20
3 30 31 21
3 31 12 21
3 31 22 12
3 32 23 22
3 32 33 23
3 33 24 23
3 33 34 24
3 34 25 24
3 34 35 25
3 35 26 25
3 35 36 26
3 36 27 26
3 36 37 27
3 37 28 27
3 37 38 28
3 38 29 28
3 38 39 29
3 39 30 29
3 39 40 30
3 40 31 30
3 40 41 31
3 41 22 31
3 41 32 22
3 42 44 45
3 43 75 74
3 42 45 46
3 43 76 75
3 42 46 47
3 43 77 76
3 42 47 48
3 43 78 77
3 42 48 49
3 43 79 78
3 42 49 50
3 43 80 79
3 42 50 51
3 43 81 80
3 42 51 52
3 43 82 81
3 42 52 53
3 43 83 82
3 42 53 44
3 43 74 83
3 54 45 44
3 54 55 45
3 55 46 45
3 55 56 46
3 56 47 46
3 56 57 47
3 57 48 47
3 57 58 48
3 58 49 48
3 58 59 49
3 59 50 49
3 59 60 50
3 60 51 50
3 60 61 51
3 61 52 51
3 61 62 52
3 62 53 52
3 62 63 53
3 63 44 53
3 63 54 44
3 64 55 54
3 64 65 55
3 65 56 55
3 65 66 56
3 66 57 56
3 66 67 57
3 67 58 57
3 67 68 58
3 68 59 58
3 68 69 59
3 69 60 59
3 69 70 60
3 70 61 60
3 70 71 61
3 71 62 61
3 71 72 62
3 72 63 62
3 72 73 63
3 73 54 63
3 73 64 54
3 74 65 64
3 74 75 65
3 75 66 65
3 75 76 66
3 76 67 66
3 76 77 67
3 77 68 67
3 77 78 68
3 78 69 68
3 78 79 69
3 79 70 69
3 79 80 70
3 80 71 70
3 80 81 71
3 81 72 71
3 81 82 72
3 82 73 72
3 82 83 73
3 83 64 73
3 83 74 64
